<?xml version="1.0" encoding="utf-8"?>
<!-- Generator: Adobe Illustrator 21.0.2, SVG Export Plug-In . SVG Version: 6.00 Build 0)  -->
<svg xmlns="http://www.w3.org/2000/svg" xmlns:xlink="http://www.w3.org/1999/xlink" version="1.1" id="Layer_1" x="0px" y="0px" viewBox="0 0 48 48" style="enable-background:new 0 0 48 48;" xml:space="preserve" width="48px" height="48px">
<g id="surface1">
	<path style="fill:#455A64;" d="M24,43.4L5,31.1V16.9L24,4.6l19,12.3v14.2L24,43.4z M9,28.9l15,9.7l15-9.7v-9.8L24,9.4L9,19.1V28.9z   "/>
	<polygon style="fill:#455A64;" points="24,32.4 5.8,19.6 8.2,16.4 24,27.6 39.8,16.4 42.2,19.6  "/>
	<polygon style="fill:#455A64;" points="39.9,31.6 24,20.6 8.1,31.6 5.9,28.4 24,15.8 42.1,28.4  "/>
	<rect x="22" y="8" style="fill:#455A64;" width="4" height="10.1"/>
	<rect x="22" y="29.9" style="fill:#455A64;" width="4" height="10.1"/>
</g>
</svg>
